<svg width="149" height="54" viewBox="0 0 149 54" fill="none" xmlns="http://www.w3.org/2000/svg">
<path d="M38.6178 12.09C41.9854 12.09 44.7154 9.38358 44.7154 6.04501C44.7154 2.70644 41.9854 0 38.6178 0C35.2502 0 32.5203 2.70644 32.5203 6.04501C32.5203 9.38358 35.2502 12.09 38.6178 12.09Z" fill="url(#paint0_linear_7222_35007)"/>
<path d="M6.09756 12.09C9.46515 12.09 12.1951 9.38358 12.1951 6.04501C12.1951 2.70644 9.46515 0 6.09756 0C2.72997 0 0 2.70644 0 6.04501C0 9.38358 2.72997 12.09 6.09756 12.09Z" fill="url(#paint1_linear_7222_35007)"/>
<path d="M44.7155 15.4088V47.6489H32.5161C32.5166 45.0677 31.5187 42.5848 29.7283 40.712C27.9379 38.8393 25.4915 37.7195 22.8935 37.5836C22.716 37.5732 22.538 37.5689 22.3587 37.5689C22.1794 37.5689 22.0013 37.5732 21.8239 37.5836C19.2256 37.7193 16.7789 38.839 14.9881 40.7117C13.1974 42.5845 12.1992 45.0675 12.1993 47.6489H0V15.4088H12.1993C12.1995 17.9879 13.1961 20.4687 14.984 22.3408C16.772 24.213 19.2152 25.3339 21.8109 25.4729C21.9925 25.4831 22.1753 25.4882 22.3593 25.4882C22.5433 25.4882 22.7261 25.4831 22.9076 25.4729C25.5035 25.3345 27.9471 24.2137 29.7352 22.3415C31.5233 20.4692 32.5197 17.9881 32.5192 15.4088H44.7155Z" fill="white"/>
<path d="M49.1987 45.8933H57.8757V24.4157H49.1987V45.8933ZM49.1987 22.9838H57.8757V17.2565H49.1987V22.9838Z" fill="white"/>
<path d="M81.0257 24.4157L74.8795 39.0204L68.7333 24.4157H59.3332L68.3717 45.8933H81.3873L90.4258 24.4157H81.0257Z" fill="white"/>
<path d="M104.176 30.501C106.972 30.501 108.755 31.3362 109.527 33.0067H98.8249C99.5962 31.3362 101.38 30.501 104.176 30.501ZM118.493 36.5863L118.601 35.8704C118.625 35.6079 118.637 35.3692 118.637 35.1545C118.637 31.6226 117.432 28.9021 115.022 26.993C112.539 25.0362 108.924 24.0577 104.176 24.0577C99.4516 24.0577 95.8362 25.0362 93.3295 26.993C90.9192 28.9021 89.714 31.6226 89.714 35.1545C89.714 38.6863 90.9192 41.4068 93.3295 43.3159C95.8362 45.2728 99.4516 46.2512 104.176 46.2512C112.298 46.2512 116.998 43.5069 118.276 38.0181H108.984C108.02 39.2113 106.417 39.8079 104.176 39.8079C101.066 39.8079 99.2226 38.7341 98.6441 36.5863H118.493Z" fill="white"/>
<path d="M139.6 24.4157L133.454 39.0204L127.307 24.4157H117.907L126.946 45.8933H130.561L127.561 53.0524H136.961L149 24.4157H139.6Z" fill="white"/>
<defs>
<linearGradient id="paint0_linear_7222_35007" x1="32.5203" y1="6.04501" x2="44.7148" y2="6.04501" gradientUnits="userSpaceOnUse">
<stop stop-color="#009BFF"/>
<stop offset="1" stop-color="#766BFF"/>
</linearGradient>
<linearGradient id="paint1_linear_7222_35007" x1="0" y1="6.04501" x2="12.1951" y2="6.04501" gradientUnits="userSpaceOnUse">
<stop stop-color="#009BFF"/>
<stop offset="1" stop-color="#766BFF"/>
</linearGradient>
</defs>
</svg>
